Coordinates
version=1
nRows=8
nColumns=28
inDegrees=yes

Units are S.I. units (second, meters, Newtons, ...)
Angles are in degrees.

endheader
time	pelvis_tilt	pelvis_list	pelvis_rotation	pelvis_tx	pelvis_ty	pelvis_tz	hip_flexion_r	hip_adduction_r	hip_rotation_r	knee_angle_r	ankle_angle_r	subtalar_angle_r	mtp_angle_r	hip_flexion_l	hip_adduction_l	hip_rotation_l	knee_angle_l	socket_flexion	socket_adduction	socket_rotation	socket_tx	socket_ty	socket_tz	foot_flex	lumbar_extension	lumbar_bending	lumbar_rotation
      0.00000000	      0.38389963	    -11.21425330	    -12.53844208	     -0.85959469	      0.98969552	      0.33738824	    -23.42523261	     10.73040392	     14.47145286	     -9.84783818	      1.56284455	    -16.00685765	     22.55410956	     25.30865940	    -15.93303037	      9.23714749	     -6.35352961	      0.00000000	      0.00000000	      0.00000000	      0.00000000	      0.00000000	      0.00000000	      2.66886908	    -14.02897816	      7.75239807	     20.29882451
      0.00416667	      0.31927836	    -11.25904821	    -12.47533359	     -0.85452779	      0.98904855	      0.33682407	    -23.53208962	     10.73420991	     14.51212834	    -10.02150287	      1.51032646	    -16.00545718	     22.55571570	     25.17850101	    -15.88062938	      9.22673912	     -6.38040449	      0.00000000	      0.00000000	      0.00000000	      0.00000000	      0.00000000	      0.00000000	      2.60322988	    -13.90159179	      7.81942219	     20.30664950
      0.00833333	      0.23989569	    -11.36395675	    -12.53163463	     -0.84942301	      0.98850431	      0.33637870	    -23.50273688	     10.77858412	     14.49217463	    -10.47354525	      1.18748505	    -16.03455536	     22.54811658	     24.92952757	    -15.95635878	      9.20835968	     -6.20207608	      0.00000000	      0.00000000	      0.00000000	      0.00000000	      0.00000000	      0.00000000	      2.20235166	    -13.84201972	      7.94563709	     20.31783186
      0.01250000	      0.16973551	    -11.40502745	    -12.46336711	     -0.84396443	      0.98786706	      0.33574023	    -23.58798337	     10.77977478	     14.54565870	    -10.69636322	      1.10327455	    -16.03299662	     22.55173682	     24.78381587	    -15.88769616	      9.19301270	     -6.23182120	      0.00000000	      0.00000000	      0.00000000	      0.00000000	      0.00000000	      0.00000000	      2.12916024	    -13.70660552	      8.01609174	     20.32474734
      0.01666667	      0.06796282	    -11.48080118	    -12.54643325	     -0.83856852	      0.98730347	      0.33529767	    -23.49379064	     10.78914667	     14.52237361	    -11.24011806	      0.70095536	    -16.06519087	     22.55677865	     24.54967519	    -15.94213636	      9.16176112	     -6.09024450	      0.00000000	      0.00000000	      0.00000000	      0.00000000	      0.00000000	      0.00000000	      1.73908642	    -13.61832863	      8.10712266	     20.32471600
      0.02083333	     -0.00614148	    -11.51125140	    -12.47383930	     -0.83279630	      0.98667927	      0.33461617	    -23.57617953	     10.77535827	     14.58375025	    -11.47349835	      0.61593994	    -16.06149458	     22.56297149	     24.39552421	    -15.85797068	      9.15967731	     -6.13406790	      0.00000000	      0.00000000	      0.00000000	      0.00000000	      0.00000000	      0.00000000	      1.67139826	    -13.46118506	      8.17537996	     20.33010978
      0.02500000	     -0.13029660	    -11.53013806	    -12.55782150	     -0.82714676	      0.98613084	      0.33416672	    -23.41866649	     10.74121064	     14.55806367	    -12.08375159	      0.15726641	    -16.09144961	     22.57730235	     24.17201167	    -15.85386371	      9.15653736	     -5.99836010	      0.00000000	      0.00000000	      0.00000000	      0.00000000	      0.00000000	      0.00000000	      1.26721603	    -13.32843686	      8.19970068	     20.31228387
      0.02916667	     -0.20125560	    -11.55411326	    -12.47720597	     -0.82113231	      0.98556475	      0.33340226	    -23.50334730	     10.71599374	     14.62523448	    -12.31690441	      0.07799471	    -16.08565319	     22.58374454	     24.00891177	    -15.74778570	      9.16202659	     -6.06664386	      0.00000000	      0.00000000	      0.00000000	      0.00000000	      0.00000000	      0.00000000	      1.21095678	    -13.15210601	      8.27077885	     20.31589701
